<?xml version="1.0" standalone="no"?>
<svg xmlns="http://www.w3.org/2000/svg" version="1.1" width="264" height="264">
	<!-- Created with https://api.qrserver.com (QR Code API, see goQR.me/api for information) -->
	<title>QR Code</title>
	<desc>t1dSqorCh1PdyvViTRHzKdAFjnR81VyGv1u</desc>
	<rect style="fill:rgb(255, 255, 255);fill-opacity:1" x="0" y="0" width="264" height="264" />
	<g id="elements">
		<path style="fill:rgb(45, 45, 45)" d="M 16,16 l 8,0 0,8 -8,0 z M 24,16 l 8,0 0,8 -8,0 z M 32,16 l 8,0 0,8 -8,0 z M 40,16 l 8,0 0,8 -8,0 z M 48,16 l 8,0 0,8 -8,0 z M 56,16 l 8,0 0,8 -8,0 z M 64,16 l 8,0 0,8 -8,0 z M 88,16 l 8,0 0,8 -8,0 z M 136,16 l 8,0 0,8 -8,0 z M 144,16 l 8,0 0,8 -8,0 z M 160,16 l 8,0 0,8 -8,0 z M 176,16 l 8,0 0,8 -8,0 z M 192,16 l 8,0 0,8 -8,0 z M 200,16 l 8,0 0,8 -8,0 z M 208,16 l 8,0 0,8 -8,0 z M 216,16 l 8,0 0,8 -8,0 z M 224,16 l 8,0 0,8 -8,0 z M 232,16 l 8,0 0,8 -8,0 z M 240,16 l 8,0 0,8 -8,0 z M 16,24 l 8,0 0,8 -8,0 z M 64,24 l 8,0 0,8 -8,0 z M 80,24 l 8,0 0,8 -8,0 z M 88,24 l 8,0 0,8 -8,0 z M 104,24 l 8,0 0,8 -8,0 z M 112,24 l 8,0 0,8 -8,0 z M 160,24 l 8,0 0,8 -8,0 z M 192,24 l 8,0 0,8 -8,0 z M 240,24 l 8,0 0,8 -8,0 z M 16,32 l 8,0 0,8 -8,0 z M 32,32 l 8,0 0,8 -8,0 z M 40,32 l 8,0 0,8 -8,0 z M 48,32 l 8,0 0,8 -8,0 z M 64,32 l 8,0 0,8 -8,0 z M 88,32 l 8,0 0,8 -8,0 z M 96,32 l 8,0 0,8 -8,0 z M 104,32 l 8,0 0,8 -8,0 z M 128,32 l 8,0 0,8 -8,0 z M 144,32 l 8,0 0,8 -8,0 z M 176,32 l 8,0 0,8 -8,0 z M 192,32 l 8,0 0,8 -8,0 z M 208,32 l 8,0 0,8 -8,0 z M 216,32 l 8,0 0,8 -8,0 z M 224,32 l 8,0 0,8 -8,0 z M 240,32 l 8,0 0,8 -8,0 z M 16,40 l 8,0 0,8 -8,0 z M 32,40 l 8,0 0,8 -8,0 z M 40,40 l 8,0 0,8 -8,0 z M 48,40 l 8,0 0,8 -8,0 z M 64,40 l 8,0 0,8 -8,0 z M 80,40 l 8,0 0,8 -8,0 z M 88,40 l 8,0 0,8 -8,0 z M 104,40 l 8,0 0,8 -8,0 z M 192,40 l 8,0 0,8 -8,0 z M 208,40 l 8,0 0,8 -8,0 z M 216,40 l 8,0 0,8 -8,0 z M 224,40 l 8,0 0,8 -8,0 z M 240,40 l 8,0 0,8 -8,0 z M 16,48 l 8,0 0,8 -8,0 z M 32,48 l 8,0 0,8 -8,0 z M 40,48 l 8,0 0,8 -8,0 z M 48,48 l 8,0 0,8 -8,0 z M 64,48 l 8,0 0,8 -8,0 z M 96,48 l 8,0 0,8 -8,0 z M 112,48 l 8,0 0,8 -8,0 z M 120,48 l 8,0 0,8 -8,0 z M 128,48 l 8,0 0,8 -8,0 z M 136,48 l 8,0 0,8 -8,0 z M 160,48 l 8,0 0,8 -8,0 z M 168,48 l 8,0 0,8 -8,0 z M 176,48 l 8,0 0,8 -8,0 z M 192,48 l 8,0 0,8 -8,0 z M 208,48 l 8,0 0,8 -8,0 z M 216,48 l 8,0 0,8 -8,0 z M 224,48 l 8,0 0,8 -8,0 z M 240,48 l 8,0 0,8 -8,0 z M 16,56 l 8,0 0,8 -8,0 z M 64,56 l 8,0 0,8 -8,0 z M 80,56 l 8,0 0,8 -8,0 z M 96,56 l 8,0 0,8 -8,0 z M 120,56 l 8,0 0,8 -8,0 z M 128,56 l 8,0 0,8 -8,0 z M 136,56 l 8,0 0,8 -8,0 z M 144,56 l 8,0 0,8 -8,0 z M 152,56 l 8,0 0,8 -8,0 z M 176,56 l 8,0 0,8 -8,0 z M 192,56 l 8,0 0,8 -8,0 z M 240,56 l 8,0 0,8 -8,0 z M 16,64 l 8,0 0,8 -8,0 z M 24,64 l 8,0 0,8 -8,0 z M 32,64 l 8,0 0,8 -8,0 z M 40,64 l 8,0 0,8 -8,0 z M 48,64 l 8,0 0,8 -8,0 z M 56,64 l 8,0 0,8 -8,0 z M 64,64 l 8,0 0,8 -8,0 z M 80,64 l 8,0 0,8 -8,0 z M 96,64 l 8,0 0,8 -8,0 z M 112,64 l 8,0 0,8 -8,0 z M 128,64 l 8,0 0,8 -8,0 z M 144,64 l 8,0 0,8 -8,0 z M 160,64 l 8,0 0,8 -8,0 z M 176,64 l 8,0 0,8 -8,0 z M 192,64 l 8,0 0,8 -8,0 z M 200,64 l 8,0 0,8 -8,0 z M 208,64 l 8,0 0,8 -8,0 z M 216,64 l 8,0 0,8 -8,0 z M 224,64 l 8,0 0,8 -8,0 z M 232,64 l 8,0 0,8 -8,0 z M 240,64 l 8,0 0,8 -8,0 z M 112,72 l 8,0 0,8 -8,0 z M 120,72 l 8,0 0,8 -8,0 z M 136,72 l 8,0 0,8 -8,0 z M 144,72 l 8,0 0,8 -8,0 z M 160,72 l 8,0 0,8 -8,0 z M 168,72 l 8,0 0,8 -8,0 z M 16,80 l 8,0 0,8 -8,0 z M 24,80 l 8,0 0,8 -8,0 z M 32,80 l 8,0 0,8 -8,0 z M 40,80 l 8,0 0,8 -8,0 z M 48,80 l 8,0 0,8 -8,0 z M 64,80 l 8,0 0,8 -8,0 z M 72,80 l 8,0 0,8 -8,0 z M 80,80 l 8,0 0,8 -8,0 z M 88,80 l 8,0 0,8 -8,0 z M 96,80 l 8,0 0,8 -8,0 z M 112,80 l 8,0 0,8 -8,0 z M 128,80 l 8,0 0,8 -8,0 z M 136,80 l 8,0 0,8 -8,0 z M 144,80 l 8,0 0,8 -8,0 z M 152,80 l 8,0 0,8 -8,0 z M 168,80 l 8,0 0,8 -8,0 z M 184,80 l 8,0 0,8 -8,0 z M 200,80 l 8,0 0,8 -8,0 z M 216,80 l 8,0 0,8 -8,0 z M 232,80 l 8,0 0,8 -8,0 z M 48,88 l 8,0 0,8 -8,0 z M 72,88 l 8,0 0,8 -8,0 z M 88,88 l 8,0 0,8 -8,0 z M 144,88 l 8,0 0,8 -8,0 z M 152,88 l 8,0 0,8 -8,0 z M 160,88 l 8,0 0,8 -8,0 z M 176,88 l 8,0 0,8 -8,0 z M 192,88 l 8,0 0,8 -8,0 z M 200,88 l 8,0 0,8 -8,0 z M 208,88 l 8,0 0,8 -8,0 z M 16,96 l 8,0 0,8 -8,0 z M 24,96 l 8,0 0,8 -8,0 z M 32,96 l 8,0 0,8 -8,0 z M 40,96 l 8,0 0,8 -8,0 z M 48,96 l 8,0 0,8 -8,0 z M 56,96 l 8,0 0,8 -8,0 z M 64,96 l 8,0 0,8 -8,0 z M 72,96 l 8,0 0,8 -8,0 z M 88,96 l 8,0 0,8 -8,0 z M 104,96 l 8,0 0,8 -8,0 z M 112,96 l 8,0 0,8 -8,0 z M 136,96 l 8,0 0,8 -8,0 z M 144,96 l 8,0 0,8 -8,0 z M 152,96 l 8,0 0,8 -8,0 z M 160,96 l 8,0 0,8 -8,0 z M 184,96 l 8,0 0,8 -8,0 z M 192,96 l 8,0 0,8 -8,0 z M 208,96 l 8,0 0,8 -8,0 z M 216,96 l 8,0 0,8 -8,0 z M 224,96 l 8,0 0,8 -8,0 z M 16,104 l 8,0 0,8 -8,0 z M 24,104 l 8,0 0,8 -8,0 z M 32,104 l 8,0 0,8 -8,0 z M 48,104 l 8,0 0,8 -8,0 z M 72,104 l 8,0 0,8 -8,0 z M 88,104 l 8,0 0,8 -8,0 z M 96,104 l 8,0 0,8 -8,0 z M 104,104 l 8,0 0,8 -8,0 z M 128,104 l 8,0 0,8 -8,0 z M 136,104 l 8,0 0,8 -8,0 z M 160,104 l 8,0 0,8 -8,0 z M 168,104 l 8,0 0,8 -8,0 z M 200,104 l 8,0 0,8 -8,0 z M 208,104 l 8,0 0,8 -8,0 z M 216,104 l 8,0 0,8 -8,0 z M 232,104 l 8,0 0,8 -8,0 z M 32,112 l 8,0 0,8 -8,0 z M 40,112 l 8,0 0,8 -8,0 z M 56,112 l 8,0 0,8 -8,0 z M 64,112 l 8,0 0,8 -8,0 z M 72,112 l 8,0 0,8 -8,0 z M 80,112 l 8,0 0,8 -8,0 z M 88,112 l 8,0 0,8 -8,0 z M 104,112 l 8,0 0,8 -8,0 z M 136,112 l 8,0 0,8 -8,0 z M 144,112 l 8,0 0,8 -8,0 z M 152,112 l 8,0 0,8 -8,0 z M 168,112 l 8,0 0,8 -8,0 z M 176,112 l 8,0 0,8 -8,0 z M 216,112 l 8,0 0,8 -8,0 z M 224,112 l 8,0 0,8 -8,0 z M 24,120 l 8,0 0,8 -8,0 z M 40,120 l 8,0 0,8 -8,0 z M 48,120 l 8,0 0,8 -8,0 z M 56,120 l 8,0 0,8 -8,0 z M 72,120 l 8,0 0,8 -8,0 z M 80,120 l 8,0 0,8 -8,0 z M 96,120 l 8,0 0,8 -8,0 z M 112,120 l 8,0 0,8 -8,0 z M 120,120 l 8,0 0,8 -8,0 z M 128,120 l 8,0 0,8 -8,0 z M 152,120 l 8,0 0,8 -8,0 z M 160,120 l 8,0 0,8 -8,0 z M 168,120 l 8,0 0,8 -8,0 z M 176,120 l 8,0 0,8 -8,0 z M 192,120 l 8,0 0,8 -8,0 z M 200,120 l 8,0 0,8 -8,0 z M 208,120 l 8,0 0,8 -8,0 z M 232,120 l 8,0 0,8 -8,0 z M 240,120 l 8,0 0,8 -8,0 z M 16,128 l 8,0 0,8 -8,0 z M 24,128 l 8,0 0,8 -8,0 z M 48,128 l 8,0 0,8 -8,0 z M 56,128 l 8,0 0,8 -8,0 z M 64,128 l 8,0 0,8 -8,0 z M 80,128 l 8,0 0,8 -8,0 z M 96,128 l 8,0 0,8 -8,0 z M 120,128 l 8,0 0,8 -8,0 z M 128,128 l 8,0 0,8 -8,0 z M 136,128 l 8,0 0,8 -8,0 z M 152,128 l 8,0 0,8 -8,0 z M 208,128 l 8,0 0,8 -8,0 z M 216,128 l 8,0 0,8 -8,0 z M 48,136 l 8,0 0,8 -8,0 z M 80,136 l 8,0 0,8 -8,0 z M 112,136 l 8,0 0,8 -8,0 z M 120,136 l 8,0 0,8 -8,0 z M 144,136 l 8,0 0,8 -8,0 z M 160,136 l 8,0 0,8 -8,0 z M 184,136 l 8,0 0,8 -8,0 z M 192,136 l 8,0 0,8 -8,0 z M 208,136 l 8,0 0,8 -8,0 z M 216,136 l 8,0 0,8 -8,0 z M 24,144 l 8,0 0,8 -8,0 z M 40,144 l 8,0 0,8 -8,0 z M 64,144 l 8,0 0,8 -8,0 z M 72,144 l 8,0 0,8 -8,0 z M 80,144 l 8,0 0,8 -8,0 z M 96,144 l 8,0 0,8 -8,0 z M 112,144 l 8,0 0,8 -8,0 z M 128,144 l 8,0 0,8 -8,0 z M 136,144 l 8,0 0,8 -8,0 z M 144,144 l 8,0 0,8 -8,0 z M 168,144 l 8,0 0,8 -8,0 z M 200,144 l 8,0 0,8 -8,0 z M 208,144 l 8,0 0,8 -8,0 z M 224,144 l 8,0 0,8 -8,0 z M 232,144 l 8,0 0,8 -8,0 z M 16,152 l 8,0 0,8 -8,0 z M 32,152 l 8,0 0,8 -8,0 z M 80,152 l 8,0 0,8 -8,0 z M 144,152 l 8,0 0,8 -8,0 z M 176,152 l 8,0 0,8 -8,0 z M 200,152 l 8,0 0,8 -8,0 z M 208,152 l 8,0 0,8 -8,0 z M 216,152 l 8,0 0,8 -8,0 z M 224,152 l 8,0 0,8 -8,0 z M 240,152 l 8,0 0,8 -8,0 z M 16,160 l 8,0 0,8 -8,0 z M 48,160 l 8,0 0,8 -8,0 z M 64,160 l 8,0 0,8 -8,0 z M 72,160 l 8,0 0,8 -8,0 z M 88,160 l 8,0 0,8 -8,0 z M 96,160 l 8,0 0,8 -8,0 z M 104,160 l 8,0 0,8 -8,0 z M 112,160 l 8,0 0,8 -8,0 z M 136,160 l 8,0 0,8 -8,0 z M 144,160 l 8,0 0,8 -8,0 z M 152,160 l 8,0 0,8 -8,0 z M 160,160 l 8,0 0,8 -8,0 z M 200,160 l 8,0 0,8 -8,0 z M 208,160 l 8,0 0,8 -8,0 z M 216,160 l 8,0 0,8 -8,0 z M 224,160 l 8,0 0,8 -8,0 z M 232,160 l 8,0 0,8 -8,0 z M 16,168 l 8,0 0,8 -8,0 z M 32,168 l 8,0 0,8 -8,0 z M 40,168 l 8,0 0,8 -8,0 z M 48,168 l 8,0 0,8 -8,0 z M 72,168 l 8,0 0,8 -8,0 z M 80,168 l 8,0 0,8 -8,0 z M 104,168 l 8,0 0,8 -8,0 z M 128,168 l 8,0 0,8 -8,0 z M 144,168 l 8,0 0,8 -8,0 z M 160,168 l 8,0 0,8 -8,0 z M 168,168 l 8,0 0,8 -8,0 z M 184,168 l 8,0 0,8 -8,0 z M 192,168 l 8,0 0,8 -8,0 z M 208,168 l 8,0 0,8 -8,0 z M 216,168 l 8,0 0,8 -8,0 z M 232,168 l 8,0 0,8 -8,0 z M 16,176 l 8,0 0,8 -8,0 z M 56,176 l 8,0 0,8 -8,0 z M 64,176 l 8,0 0,8 -8,0 z M 72,176 l 8,0 0,8 -8,0 z M 88,176 l 8,0 0,8 -8,0 z M 96,176 l 8,0 0,8 -8,0 z M 104,176 l 8,0 0,8 -8,0 z M 136,176 l 8,0 0,8 -8,0 z M 152,176 l 8,0 0,8 -8,0 z M 160,176 l 8,0 0,8 -8,0 z M 176,176 l 8,0 0,8 -8,0 z M 184,176 l 8,0 0,8 -8,0 z M 192,176 l 8,0 0,8 -8,0 z M 200,176 l 8,0 0,8 -8,0 z M 208,176 l 8,0 0,8 -8,0 z M 216,176 l 8,0 0,8 -8,0 z M 224,176 l 8,0 0,8 -8,0 z M 80,184 l 8,0 0,8 -8,0 z M 88,184 l 8,0 0,8 -8,0 z M 96,184 l 8,0 0,8 -8,0 z M 112,184 l 8,0 0,8 -8,0 z M 120,184 l 8,0 0,8 -8,0 z M 128,184 l 8,0 0,8 -8,0 z M 136,184 l 8,0 0,8 -8,0 z M 144,184 l 8,0 0,8 -8,0 z M 152,184 l 8,0 0,8 -8,0 z M 168,184 l 8,0 0,8 -8,0 z M 176,184 l 8,0 0,8 -8,0 z M 208,184 l 8,0 0,8 -8,0 z M 240,184 l 8,0 0,8 -8,0 z M 16,192 l 8,0 0,8 -8,0 z M 24,192 l 8,0 0,8 -8,0 z M 32,192 l 8,0 0,8 -8,0 z M 40,192 l 8,0 0,8 -8,0 z M 48,192 l 8,0 0,8 -8,0 z M 56,192 l 8,0 0,8 -8,0 z M 64,192 l 8,0 0,8 -8,0 z M 80,192 l 8,0 0,8 -8,0 z M 96,192 l 8,0 0,8 -8,0 z M 120,192 l 8,0 0,8 -8,0 z M 128,192 l 8,0 0,8 -8,0 z M 136,192 l 8,0 0,8 -8,0 z M 144,192 l 8,0 0,8 -8,0 z M 160,192 l 8,0 0,8 -8,0 z M 176,192 l 8,0 0,8 -8,0 z M 192,192 l 8,0 0,8 -8,0 z M 208,192 l 8,0 0,8 -8,0 z M 224,192 l 8,0 0,8 -8,0 z M 16,200 l 8,0 0,8 -8,0 z M 64,200 l 8,0 0,8 -8,0 z M 88,200 l 8,0 0,8 -8,0 z M 96,200 l 8,0 0,8 -8,0 z M 112,200 l 8,0 0,8 -8,0 z M 120,200 l 8,0 0,8 -8,0 z M 136,200 l 8,0 0,8 -8,0 z M 160,200 l 8,0 0,8 -8,0 z M 168,200 l 8,0 0,8 -8,0 z M 176,200 l 8,0 0,8 -8,0 z M 208,200 l 8,0 0,8 -8,0 z M 216,200 l 8,0 0,8 -8,0 z M 240,200 l 8,0 0,8 -8,0 z M 16,208 l 8,0 0,8 -8,0 z M 32,208 l 8,0 0,8 -8,0 z M 40,208 l 8,0 0,8 -8,0 z M 48,208 l 8,0 0,8 -8,0 z M 64,208 l 8,0 0,8 -8,0 z M 80,208 l 8,0 0,8 -8,0 z M 88,208 l 8,0 0,8 -8,0 z M 96,208 l 8,0 0,8 -8,0 z M 112,208 l 8,0 0,8 -8,0 z M 128,208 l 8,0 0,8 -8,0 z M 144,208 l 8,0 0,8 -8,0 z M 152,208 l 8,0 0,8 -8,0 z M 160,208 l 8,0 0,8 -8,0 z M 176,208 l 8,0 0,8 -8,0 z M 184,208 l 8,0 0,8 -8,0 z M 192,208 l 8,0 0,8 -8,0 z M 200,208 l 8,0 0,8 -8,0 z M 208,208 l 8,0 0,8 -8,0 z M 232,208 l 8,0 0,8 -8,0 z M 16,216 l 8,0 0,8 -8,0 z M 32,216 l 8,0 0,8 -8,0 z M 40,216 l 8,0 0,8 -8,0 z M 48,216 l 8,0 0,8 -8,0 z M 64,216 l 8,0 0,8 -8,0 z M 80,216 l 8,0 0,8 -8,0 z M 88,216 l 8,0 0,8 -8,0 z M 144,216 l 8,0 0,8 -8,0 z M 200,216 l 8,0 0,8 -8,0 z M 232,216 l 8,0 0,8 -8,0 z M 240,216 l 8,0 0,8 -8,0 z M 16,224 l 8,0 0,8 -8,0 z M 32,224 l 8,0 0,8 -8,0 z M 40,224 l 8,0 0,8 -8,0 z M 48,224 l 8,0 0,8 -8,0 z M 64,224 l 8,0 0,8 -8,0 z M 80,224 l 8,0 0,8 -8,0 z M 96,224 l 8,0 0,8 -8,0 z M 104,224 l 8,0 0,8 -8,0 z M 112,224 l 8,0 0,8 -8,0 z M 136,224 l 8,0 0,8 -8,0 z M 160,224 l 8,0 0,8 -8,0 z M 168,224 l 8,0 0,8 -8,0 z M 184,224 l 8,0 0,8 -8,0 z M 192,224 l 8,0 0,8 -8,0 z M 208,224 l 8,0 0,8 -8,0 z M 216,224 l 8,0 0,8 -8,0 z M 224,224 l 8,0 0,8 -8,0 z M 232,224 l 8,0 0,8 -8,0 z M 16,232 l 8,0 0,8 -8,0 z M 64,232 l 8,0 0,8 -8,0 z M 80,232 l 8,0 0,8 -8,0 z M 88,232 l 8,0 0,8 -8,0 z M 104,232 l 8,0 0,8 -8,0 z M 128,232 l 8,0 0,8 -8,0 z M 144,232 l 8,0 0,8 -8,0 z M 168,232 l 8,0 0,8 -8,0 z M 184,232 l 8,0 0,8 -8,0 z M 192,232 l 8,0 0,8 -8,0 z M 208,232 l 8,0 0,8 -8,0 z M 216,232 l 8,0 0,8 -8,0 z M 232,232 l 8,0 0,8 -8,0 z M 16,240 l 8,0 0,8 -8,0 z M 24,240 l 8,0 0,8 -8,0 z M 32,240 l 8,0 0,8 -8,0 z M 40,240 l 8,0 0,8 -8,0 z M 48,240 l 8,0 0,8 -8,0 z M 56,240 l 8,0 0,8 -8,0 z M 64,240 l 8,0 0,8 -8,0 z M 80,240 l 8,0 0,8 -8,0 z M 96,240 l 8,0 0,8 -8,0 z M 104,240 l 8,0 0,8 -8,0 z M 136,240 l 8,0 0,8 -8,0 z M 144,240 l 8,0 0,8 -8,0 z M 168,240 l 8,0 0,8 -8,0 z M 224,240 l 8,0 0,8 -8,0 z " />
	</g>
</svg>
