<?xml version="1.0" standalone="no"?>
<svg xmlns="http://www.w3.org/2000/svg" version="1.1" width="264" height="264">
	<!-- Created with https://api.qrserver.com (QR Code API, see goQR.me/api for information) -->
	<title>QR Code</title>
	<desc>1HdcMMjVhzzn6ZjvvyDfWbodYBbqLM9cwK</desc>
	<rect style="fill:rgb(255, 255, 255);fill-opacity:1" x="0" y="0" width="264" height="264" />
	<g id="elements">
		<path style="fill:rgb(45, 45, 45)" d="M 16,16 l 8,0 0,8 -8,0 z M 24,16 l 8,0 0,8 -8,0 z M 32,16 l 8,0 0,8 -8,0 z M 40,16 l 8,0 0,8 -8,0 z M 48,16 l 8,0 0,8 -8,0 z M 56,16 l 8,0 0,8 -8,0 z M 64,16 l 8,0 0,8 -8,0 z M 96,16 l 8,0 0,8 -8,0 z M 112,16 l 8,0 0,8 -8,0 z M 120,16 l 8,0 0,8 -8,0 z M 128,16 l 8,0 0,8 -8,0 z M 136,16 l 8,0 0,8 -8,0 z M 152,16 l 8,0 0,8 -8,0 z M 160,16 l 8,0 0,8 -8,0 z M 168,16 l 8,0 0,8 -8,0 z M 176,16 l 8,0 0,8 -8,0 z M 192,16 l 8,0 0,8 -8,0 z M 200,16 l 8,0 0,8 -8,0 z M 208,16 l 8,0 0,8 -8,0 z M 216,16 l 8,0 0,8 -8,0 z M 224,16 l 8,0 0,8 -8,0 z M 232,16 l 8,0 0,8 -8,0 z M 240,16 l 8,0 0,8 -8,0 z M 16,24 l 8,0 0,8 -8,0 z M 64,24 l 8,0 0,8 -8,0 z M 80,24 l 8,0 0,8 -8,0 z M 96,24 l 8,0 0,8 -8,0 z M 120,24 l 8,0 0,8 -8,0 z M 128,24 l 8,0 0,8 -8,0 z M 136,24 l 8,0 0,8 -8,0 z M 144,24 l 8,0 0,8 -8,0 z M 152,24 l 8,0 0,8 -8,0 z M 192,24 l 8,0 0,8 -8,0 z M 240,24 l 8,0 0,8 -8,0 z M 16,32 l 8,0 0,8 -8,0 z M 32,32 l 8,0 0,8 -8,0 z M 40,32 l 8,0 0,8 -8,0 z M 48,32 l 8,0 0,8 -8,0 z M 64,32 l 8,0 0,8 -8,0 z M 112,32 l 8,0 0,8 -8,0 z M 120,32 l 8,0 0,8 -8,0 z M 136,32 l 8,0 0,8 -8,0 z M 168,32 l 8,0 0,8 -8,0 z M 192,32 l 8,0 0,8 -8,0 z M 208,32 l 8,0 0,8 -8,0 z M 216,32 l 8,0 0,8 -8,0 z M 224,32 l 8,0 0,8 -8,0 z M 240,32 l 8,0 0,8 -8,0 z M 16,40 l 8,0 0,8 -8,0 z M 32,40 l 8,0 0,8 -8,0 z M 40,40 l 8,0 0,8 -8,0 z M 48,40 l 8,0 0,8 -8,0 z M 64,40 l 8,0 0,8 -8,0 z M 80,40 l 8,0 0,8 -8,0 z M 88,40 l 8,0 0,8 -8,0 z M 96,40 l 8,0 0,8 -8,0 z M 112,40 l 8,0 0,8 -8,0 z M 128,40 l 8,0 0,8 -8,0 z M 136,40 l 8,0 0,8 -8,0 z M 152,40 l 8,0 0,8 -8,0 z M 192,40 l 8,0 0,8 -8,0 z M 208,40 l 8,0 0,8 -8,0 z M 216,40 l 8,0 0,8 -8,0 z M 224,40 l 8,0 0,8 -8,0 z M 240,40 l 8,0 0,8 -8,0 z M 16,48 l 8,0 0,8 -8,0 z M 32,48 l 8,0 0,8 -8,0 z M 40,48 l 8,0 0,8 -8,0 z M 48,48 l 8,0 0,8 -8,0 z M 64,48 l 8,0 0,8 -8,0 z M 88,48 l 8,0 0,8 -8,0 z M 136,48 l 8,0 0,8 -8,0 z M 144,48 l 8,0 0,8 -8,0 z M 160,48 l 8,0 0,8 -8,0 z M 168,48 l 8,0 0,8 -8,0 z M 176,48 l 8,0 0,8 -8,0 z M 192,48 l 8,0 0,8 -8,0 z M 208,48 l 8,0 0,8 -8,0 z M 216,48 l 8,0 0,8 -8,0 z M 224,48 l 8,0 0,8 -8,0 z M 240,48 l 8,0 0,8 -8,0 z M 16,56 l 8,0 0,8 -8,0 z M 64,56 l 8,0 0,8 -8,0 z M 80,56 l 8,0 0,8 -8,0 z M 88,56 l 8,0 0,8 -8,0 z M 104,56 l 8,0 0,8 -8,0 z M 112,56 l 8,0 0,8 -8,0 z M 176,56 l 8,0 0,8 -8,0 z M 192,56 l 8,0 0,8 -8,0 z M 240,56 l 8,0 0,8 -8,0 z M 16,64 l 8,0 0,8 -8,0 z M 24,64 l 8,0 0,8 -8,0 z M 32,64 l 8,0 0,8 -8,0 z M 40,64 l 8,0 0,8 -8,0 z M 48,64 l 8,0 0,8 -8,0 z M 56,64 l 8,0 0,8 -8,0 z M 64,64 l 8,0 0,8 -8,0 z M 80,64 l 8,0 0,8 -8,0 z M 96,64 l 8,0 0,8 -8,0 z M 112,64 l 8,0 0,8 -8,0 z M 128,64 l 8,0 0,8 -8,0 z M 144,64 l 8,0 0,8 -8,0 z M 160,64 l 8,0 0,8 -8,0 z M 176,64 l 8,0 0,8 -8,0 z M 192,64 l 8,0 0,8 -8,0 z M 200,64 l 8,0 0,8 -8,0 z M 208,64 l 8,0 0,8 -8,0 z M 216,64 l 8,0 0,8 -8,0 z M 224,64 l 8,0 0,8 -8,0 z M 232,64 l 8,0 0,8 -8,0 z M 240,64 l 8,0 0,8 -8,0 z M 88,72 l 8,0 0,8 -8,0 z M 96,72 l 8,0 0,8 -8,0 z M 104,72 l 8,0 0,8 -8,0 z M 128,72 l 8,0 0,8 -8,0 z M 144,72 l 8,0 0,8 -8,0 z M 160,72 l 8,0 0,8 -8,0 z M 168,72 l 8,0 0,8 -8,0 z M 176,72 l 8,0 0,8 -8,0 z M 16,80 l 8,0 0,8 -8,0 z M 24,80 l 8,0 0,8 -8,0 z M 32,80 l 8,0 0,8 -8,0 z M 40,80 l 8,0 0,8 -8,0 z M 48,80 l 8,0 0,8 -8,0 z M 64,80 l 8,0 0,8 -8,0 z M 72,80 l 8,0 0,8 -8,0 z M 80,80 l 8,0 0,8 -8,0 z M 88,80 l 8,0 0,8 -8,0 z M 104,80 l 8,0 0,8 -8,0 z M 176,80 l 8,0 0,8 -8,0 z M 184,80 l 8,0 0,8 -8,0 z M 200,80 l 8,0 0,8 -8,0 z M 216,80 l 8,0 0,8 -8,0 z M 232,80 l 8,0 0,8 -8,0 z M 16,88 l 8,0 0,8 -8,0 z M 48,88 l 8,0 0,8 -8,0 z M 56,88 l 8,0 0,8 -8,0 z M 96,88 l 8,0 0,8 -8,0 z M 112,88 l 8,0 0,8 -8,0 z M 120,88 l 8,0 0,8 -8,0 z M 128,88 l 8,0 0,8 -8,0 z M 136,88 l 8,0 0,8 -8,0 z M 152,88 l 8,0 0,8 -8,0 z M 176,88 l 8,0 0,8 -8,0 z M 192,88 l 8,0 0,8 -8,0 z M 208,88 l 8,0 0,8 -8,0 z M 232,88 l 8,0 0,8 -8,0 z M 240,88 l 8,0 0,8 -8,0 z M 16,96 l 8,0 0,8 -8,0 z M 24,96 l 8,0 0,8 -8,0 z M 48,96 l 8,0 0,8 -8,0 z M 56,96 l 8,0 0,8 -8,0 z M 64,96 l 8,0 0,8 -8,0 z M 96,96 l 8,0 0,8 -8,0 z M 120,96 l 8,0 0,8 -8,0 z M 128,96 l 8,0 0,8 -8,0 z M 136,96 l 8,0 0,8 -8,0 z M 144,96 l 8,0 0,8 -8,0 z M 160,96 l 8,0 0,8 -8,0 z M 216,96 l 8,0 0,8 -8,0 z M 224,96 l 8,0 0,8 -8,0 z M 32,104 l 8,0 0,8 -8,0 z M 40,104 l 8,0 0,8 -8,0 z M 56,104 l 8,0 0,8 -8,0 z M 72,104 l 8,0 0,8 -8,0 z M 112,104 l 8,0 0,8 -8,0 z M 120,104 l 8,0 0,8 -8,0 z M 168,104 l 8,0 0,8 -8,0 z M 176,104 l 8,0 0,8 -8,0 z M 184,104 l 8,0 0,8 -8,0 z M 192,104 l 8,0 0,8 -8,0 z M 200,104 l 8,0 0,8 -8,0 z M 216,104 l 8,0 0,8 -8,0 z M 232,104 l 8,0 0,8 -8,0 z M 16,112 l 8,0 0,8 -8,0 z M 40,112 l 8,0 0,8 -8,0 z M 56,112 l 8,0 0,8 -8,0 z M 64,112 l 8,0 0,8 -8,0 z M 72,112 l 8,0 0,8 -8,0 z M 80,112 l 8,0 0,8 -8,0 z M 88,112 l 8,0 0,8 -8,0 z M 96,112 l 8,0 0,8 -8,0 z M 112,112 l 8,0 0,8 -8,0 z M 128,112 l 8,0 0,8 -8,0 z M 16,120 l 8,0 0,8 -8,0 z M 32,120 l 8,0 0,8 -8,0 z M 40,120 l 8,0 0,8 -8,0 z M 72,120 l 8,0 0,8 -8,0 z M 136,120 l 8,0 0,8 -8,0 z M 144,120 l 8,0 0,8 -8,0 z M 160,120 l 8,0 0,8 -8,0 z M 168,120 l 8,0 0,8 -8,0 z M 176,120 l 8,0 0,8 -8,0 z M 200,120 l 8,0 0,8 -8,0 z M 208,120 l 8,0 0,8 -8,0 z M 216,120 l 8,0 0,8 -8,0 z M 224,120 l 8,0 0,8 -8,0 z M 232,120 l 8,0 0,8 -8,0 z M 240,120 l 8,0 0,8 -8,0 z M 16,128 l 8,0 0,8 -8,0 z M 24,128 l 8,0 0,8 -8,0 z M 40,128 l 8,0 0,8 -8,0 z M 48,128 l 8,0 0,8 -8,0 z M 64,128 l 8,0 0,8 -8,0 z M 72,128 l 8,0 0,8 -8,0 z M 104,128 l 8,0 0,8 -8,0 z M 112,128 l 8,0 0,8 -8,0 z M 136,128 l 8,0 0,8 -8,0 z M 144,128 l 8,0 0,8 -8,0 z M 152,128 l 8,0 0,8 -8,0 z M 160,128 l 8,0 0,8 -8,0 z M 184,128 l 8,0 0,8 -8,0 z M 192,128 l 8,0 0,8 -8,0 z M 216,128 l 8,0 0,8 -8,0 z M 16,136 l 8,0 0,8 -8,0 z M 32,136 l 8,0 0,8 -8,0 z M 48,136 l 8,0 0,8 -8,0 z M 72,136 l 8,0 0,8 -8,0 z M 96,136 l 8,0 0,8 -8,0 z M 104,136 l 8,0 0,8 -8,0 z M 128,136 l 8,0 0,8 -8,0 z M 144,136 l 8,0 0,8 -8,0 z M 160,136 l 8,0 0,8 -8,0 z M 176,136 l 8,0 0,8 -8,0 z M 184,136 l 8,0 0,8 -8,0 z M 192,136 l 8,0 0,8 -8,0 z M 216,136 l 8,0 0,8 -8,0 z M 232,136 l 8,0 0,8 -8,0 z M 32,144 l 8,0 0,8 -8,0 z M 48,144 l 8,0 0,8 -8,0 z M 56,144 l 8,0 0,8 -8,0 z M 64,144 l 8,0 0,8 -8,0 z M 72,144 l 8,0 0,8 -8,0 z M 80,144 l 8,0 0,8 -8,0 z M 88,144 l 8,0 0,8 -8,0 z M 104,144 l 8,0 0,8 -8,0 z M 136,144 l 8,0 0,8 -8,0 z M 144,144 l 8,0 0,8 -8,0 z M 152,144 l 8,0 0,8 -8,0 z M 200,144 l 8,0 0,8 -8,0 z M 232,144 l 8,0 0,8 -8,0 z M 240,144 l 8,0 0,8 -8,0 z M 16,152 l 8,0 0,8 -8,0 z M 24,152 l 8,0 0,8 -8,0 z M 32,152 l 8,0 0,8 -8,0 z M 40,152 l 8,0 0,8 -8,0 z M 48,152 l 8,0 0,8 -8,0 z M 96,152 l 8,0 0,8 -8,0 z M 112,152 l 8,0 0,8 -8,0 z M 120,152 l 8,0 0,8 -8,0 z M 128,152 l 8,0 0,8 -8,0 z M 144,152 l 8,0 0,8 -8,0 z M 160,152 l 8,0 0,8 -8,0 z M 176,152 l 8,0 0,8 -8,0 z M 184,152 l 8,0 0,8 -8,0 z M 192,152 l 8,0 0,8 -8,0 z M 200,152 l 8,0 0,8 -8,0 z M 208,152 l 8,0 0,8 -8,0 z M 216,152 l 8,0 0,8 -8,0 z M 224,152 l 8,0 0,8 -8,0 z M 232,152 l 8,0 0,8 -8,0 z M 16,160 l 8,0 0,8 -8,0 z M 48,160 l 8,0 0,8 -8,0 z M 64,160 l 8,0 0,8 -8,0 z M 72,160 l 8,0 0,8 -8,0 z M 80,160 l 8,0 0,8 -8,0 z M 96,160 l 8,0 0,8 -8,0 z M 120,160 l 8,0 0,8 -8,0 z M 128,160 l 8,0 0,8 -8,0 z M 136,160 l 8,0 0,8 -8,0 z M 144,160 l 8,0 0,8 -8,0 z M 152,160 l 8,0 0,8 -8,0 z M 160,160 l 8,0 0,8 -8,0 z M 176,160 l 8,0 0,8 -8,0 z M 184,160 l 8,0 0,8 -8,0 z M 192,160 l 8,0 0,8 -8,0 z M 216,160 l 8,0 0,8 -8,0 z M 16,168 l 8,0 0,8 -8,0 z M 32,168 l 8,0 0,8 -8,0 z M 40,168 l 8,0 0,8 -8,0 z M 48,168 l 8,0 0,8 -8,0 z M 56,168 l 8,0 0,8 -8,0 z M 80,168 l 8,0 0,8 -8,0 z M 112,168 l 8,0 0,8 -8,0 z M 120,168 l 8,0 0,8 -8,0 z M 160,168 l 8,0 0,8 -8,0 z M 184,168 l 8,0 0,8 -8,0 z M 192,168 l 8,0 0,8 -8,0 z M 216,168 l 8,0 0,8 -8,0 z M 16,176 l 8,0 0,8 -8,0 z M 40,176 l 8,0 0,8 -8,0 z M 64,176 l 8,0 0,8 -8,0 z M 72,176 l 8,0 0,8 -8,0 z M 96,176 l 8,0 0,8 -8,0 z M 112,176 l 8,0 0,8 -8,0 z M 128,176 l 8,0 0,8 -8,0 z M 136,176 l 8,0 0,8 -8,0 z M 152,176 l 8,0 0,8 -8,0 z M 168,176 l 8,0 0,8 -8,0 z M 176,176 l 8,0 0,8 -8,0 z M 184,176 l 8,0 0,8 -8,0 z M 192,176 l 8,0 0,8 -8,0 z M 200,176 l 8,0 0,8 -8,0 z M 208,176 l 8,0 0,8 -8,0 z M 224,176 l 8,0 0,8 -8,0 z M 232,176 l 8,0 0,8 -8,0 z M 80,184 l 8,0 0,8 -8,0 z M 88,184 l 8,0 0,8 -8,0 z M 96,184 l 8,0 0,8 -8,0 z M 144,184 l 8,0 0,8 -8,0 z M 168,184 l 8,0 0,8 -8,0 z M 176,184 l 8,0 0,8 -8,0 z M 208,184 l 8,0 0,8 -8,0 z M 224,184 l 8,0 0,8 -8,0 z M 240,184 l 8,0 0,8 -8,0 z M 16,192 l 8,0 0,8 -8,0 z M 24,192 l 8,0 0,8 -8,0 z M 32,192 l 8,0 0,8 -8,0 z M 40,192 l 8,0 0,8 -8,0 z M 48,192 l 8,0 0,8 -8,0 z M 56,192 l 8,0 0,8 -8,0 z M 64,192 l 8,0 0,8 -8,0 z M 80,192 l 8,0 0,8 -8,0 z M 104,192 l 8,0 0,8 -8,0 z M 112,192 l 8,0 0,8 -8,0 z M 136,192 l 8,0 0,8 -8,0 z M 144,192 l 8,0 0,8 -8,0 z M 160,192 l 8,0 0,8 -8,0 z M 168,192 l 8,0 0,8 -8,0 z M 176,192 l 8,0 0,8 -8,0 z M 192,192 l 8,0 0,8 -8,0 z M 208,192 l 8,0 0,8 -8,0 z M 224,192 l 8,0 0,8 -8,0 z M 232,192 l 8,0 0,8 -8,0 z M 16,200 l 8,0 0,8 -8,0 z M 64,200 l 8,0 0,8 -8,0 z M 88,200 l 8,0 0,8 -8,0 z M 104,200 l 8,0 0,8 -8,0 z M 128,200 l 8,0 0,8 -8,0 z M 136,200 l 8,0 0,8 -8,0 z M 168,200 l 8,0 0,8 -8,0 z M 176,200 l 8,0 0,8 -8,0 z M 208,200 l 8,0 0,8 -8,0 z M 216,200 l 8,0 0,8 -8,0 z M 232,200 l 8,0 0,8 -8,0 z M 240,200 l 8,0 0,8 -8,0 z M 16,208 l 8,0 0,8 -8,0 z M 32,208 l 8,0 0,8 -8,0 z M 40,208 l 8,0 0,8 -8,0 z M 48,208 l 8,0 0,8 -8,0 z M 64,208 l 8,0 0,8 -8,0 z M 80,208 l 8,0 0,8 -8,0 z M 88,208 l 8,0 0,8 -8,0 z M 96,208 l 8,0 0,8 -8,0 z M 104,208 l 8,0 0,8 -8,0 z M 144,208 l 8,0 0,8 -8,0 z M 176,208 l 8,0 0,8 -8,0 z M 184,208 l 8,0 0,8 -8,0 z M 192,208 l 8,0 0,8 -8,0 z M 200,208 l 8,0 0,8 -8,0 z M 208,208 l 8,0 0,8 -8,0 z M 216,208 l 8,0 0,8 -8,0 z M 232,208 l 8,0 0,8 -8,0 z M 16,216 l 8,0 0,8 -8,0 z M 32,216 l 8,0 0,8 -8,0 z M 40,216 l 8,0 0,8 -8,0 z M 48,216 l 8,0 0,8 -8,0 z M 64,216 l 8,0 0,8 -8,0 z M 80,216 l 8,0 0,8 -8,0 z M 112,216 l 8,0 0,8 -8,0 z M 120,216 l 8,0 0,8 -8,0 z M 128,216 l 8,0 0,8 -8,0 z M 152,216 l 8,0 0,8 -8,0 z M 160,216 l 8,0 0,8 -8,0 z M 176,216 l 8,0 0,8 -8,0 z M 200,216 l 8,0 0,8 -8,0 z M 216,216 l 8,0 0,8 -8,0 z M 232,216 l 8,0 0,8 -8,0 z M 240,216 l 8,0 0,8 -8,0 z M 16,224 l 8,0 0,8 -8,0 z M 32,224 l 8,0 0,8 -8,0 z M 40,224 l 8,0 0,8 -8,0 z M 48,224 l 8,0 0,8 -8,0 z M 64,224 l 8,0 0,8 -8,0 z M 80,224 l 8,0 0,8 -8,0 z M 88,224 l 8,0 0,8 -8,0 z M 96,224 l 8,0 0,8 -8,0 z M 120,224 l 8,0 0,8 -8,0 z M 128,224 l 8,0 0,8 -8,0 z M 136,224 l 8,0 0,8 -8,0 z M 144,224 l 8,0 0,8 -8,0 z M 168,224 l 8,0 0,8 -8,0 z M 192,224 l 8,0 0,8 -8,0 z M 200,224 l 8,0 0,8 -8,0 z M 208,224 l 8,0 0,8 -8,0 z M 224,224 l 8,0 0,8 -8,0 z M 232,224 l 8,0 0,8 -8,0 z M 16,232 l 8,0 0,8 -8,0 z M 64,232 l 8,0 0,8 -8,0 z M 80,232 l 8,0 0,8 -8,0 z M 96,232 l 8,0 0,8 -8,0 z M 112,232 l 8,0 0,8 -8,0 z M 120,232 l 8,0 0,8 -8,0 z M 136,232 l 8,0 0,8 -8,0 z M 144,232 l 8,0 0,8 -8,0 z M 160,232 l 8,0 0,8 -8,0 z M 168,232 l 8,0 0,8 -8,0 z M 176,232 l 8,0 0,8 -8,0 z M 208,232 l 8,0 0,8 -8,0 z M 216,232 l 8,0 0,8 -8,0 z M 232,232 l 8,0 0,8 -8,0 z M 16,240 l 8,0 0,8 -8,0 z M 24,240 l 8,0 0,8 -8,0 z M 32,240 l 8,0 0,8 -8,0 z M 40,240 l 8,0 0,8 -8,0 z M 48,240 l 8,0 0,8 -8,0 z M 56,240 l 8,0 0,8 -8,0 z M 64,240 l 8,0 0,8 -8,0 z M 80,240 l 8,0 0,8 -8,0 z M 112,240 l 8,0 0,8 -8,0 z M 128,240 l 8,0 0,8 -8,0 z M 168,240 l 8,0 0,8 -8,0 z M 184,240 l 8,0 0,8 -8,0 z M 192,240 l 8,0 0,8 -8,0 z M 224,240 l 8,0 0,8 -8,0 z " />
	</g>
</svg>
