<svg xmlns="http://www.w3.org/2000/svg" width="60px" height="60px" viewBox="0 0 32 32"><path d="M16.8 6.5c3.8 0 6 2.2 6 5.4 0 2.1-1.2 3.6-3 4.3 2.3.6 3.6 2.6 3.6 4.8 0 3.1-2.5 5.4-6.1 5.4h-6.9V6.5h6.4zm-.3 8.6c2.2 0 3.5-1.3 3.5-3.2 0-1.9-1.4-3.1-3.6-3.1h-3.3v6.3h3.4zm.4 8.8c2.2 0 3.7-1.2 3.7-3.2 0-1.9-1.2-3.2-3.6-3.2h-3.9v6.4h3.8z" fill="#fff"/><path d="M30 32H2c-.5 0-1-.2-1.4-.6C.2 31 0 30.5 0 30V2C0 1.5.2 1 .6.6 1 .2 1.5 0 2 0h28c.5 0 1 .2 1.4.6.4.4.6.9.6 1.4v27.8h-.7V2c0-.3-.1-.7-.4-.9-.2-.2-.6-.4-.9-.4H2c-.3 0-.7.1-.9.4-.3.2-.4.6-.4.9v28c0 .3.1.7.4.9.2.2.6.4.9.4h28c.3 0 .7-.1.9-.4.2-.2.4-.6.4-.9v-.7h.7v.7c0 .5-.2 1-.6 1.4-.4.4-.9.6-1.4.6z" opacity="1" fill="#fff"/></svg>