<svg xmlns="http://www.w3.org/2000/svg" width="60px" height="60px" viewBox="0 0 60 60">
<style type="text/css">
	.st0{fill:#FFFFFF;}
	.st1{fill:#404040;}
</style>
<g id="layer1" transform="translate(0,-161.53334)">
	<g>
		<path id="path3722_1_" class="st0" d="M10.9,172c-4.5,0-10.6,3.2-10.2,11.3c0.5,12.7,12.1,13.8,16.7,13.9c0.5,2.4,5.9,10.6,9.9,11
			h17.6c10.6-0.8,18.5-35.9,12.6-36c-22.2,1.2-23.7,1-42,0C14.3,172.2,12.6,172,10.9,172z M12,176.5c0.6,6.5,1.7,10.3,3.8,16.1
			c-5.4-0.7-10-2.5-10.8-9.1C4.6,180,6.1,176.3,12,176.5z"/>
		<path class="st0" d="M44.8,208.5H27.2c-4.1-0.4-9.4-8.4-10.1-11c-3.9-0.1-7.2-0.9-9.8-2.3c-4.4-2.3-6.7-6.3-6.9-11.9
			c-0.1-3.4,0.8-6.3,2.8-8.4c1.9-2,4.8-3.2,7.6-3.2l0,0c1,0,2,0.1,2.8,0.1c0.6,0,1.3,0.1,1.8,0.1L17,172c16.7,0.9,18.8,1,40.3-0.1
			l0,0l0,0c1,0,2.1,0.9,2.2,4.7c0.1,4.9-1.6,12.8-4.1,19.2C53.7,200.4,49.9,208.1,44.8,208.5L44.8,208.5z M27.2,208h17.6
			c1.9-0.1,3.8-1.4,5.6-3.8c1.6-2.1,3.3-5,4.7-8.5c2.5-6.4,4.2-14.2,4.1-19c0-1.6-0.3-4.2-1.8-4.2c-21.5,1.1-23.6,1-40.3,0.1
			l-1.6-0.1c-0.5,0-1.1-0.1-1.8-0.1c-0.8-0.1-1.8-0.1-2.8-0.1l0,0l0,0c-2.7,0-5.4,1.1-7.3,3.1s-2.9,4.8-2.7,8
			C1.4,195,11.4,197,17.3,197.1h0.2v0.2C18,199.4,23.3,207.6,27.2,208z M16.2,192.8h-0.4c-3.3-0.4-5.5-1.2-7.2-2.4
			c-2.2-1.5-3.4-3.8-3.8-6.9c-0.3-2.1,0.2-4,1.4-5.3c1.3-1.4,3.2-2.1,5.9-2h0.2v0.2c0.6,6.6,1.7,10.4,3.8,16L16.2,192.8z
			 M11.7,176.7c-2.3,0-4.1,0.6-5.2,1.9c-1.1,1.2-1.5,2.9-1.3,4.9c0.8,6.5,5.4,8.1,10.3,8.8c-2-5.4-3-9.2-3.7-15.6
			C11.8,176.7,11.7,176.7,11.7,176.7z"/>
	</g>
</g>
<g id="layer2">
	<path id="rect4599" class="st1" d="M33.6,21.6l10.1,4.9c1.3,0.6,1.8,2.2,1.2,3.5L40,40.1c-0.6,1.3-2.2,1.8-3.5,1.2l-10.1-4.9
		c-1.3-0.6-1.8-2.2-1.2-3.5l4.9-10.1C30.7,21.5,32.3,20.9,33.6,21.6z"/>
	<path id="path4525" class="st1" d="M35.5,21.7l1.5,0.8V11.2h-1.5V21.7z"/>
</g>
<g id="layer3">
	<g id="g4539">
		<circle id="path4606" class="st0" cx="34" cy="26.8" r="1.6"/>
		<circle id="path4606-3" class="st0" cx="30.5" cy="34.1" r="1.6"/>
		<circle id="path4606-1" class="st0" cx="36.3" cy="36.7" r="1.6"/>
		
			<rect id="rect4629-8" x="26.7" y="27.9" transform="matrix(0.4388 -0.8986 0.8986 0.4388 -7.0071 45.8167)" class="st0" width="12.9" height="1.3"/>
		<path class="st0" d="M36.8,36.9l-1.1-0.5c0.2-0.5,0.5-1,0.7-1.4c1.4-2.8,2.1-4.3,1.8-5c-0.2-0.6-1.2-1.1-2.9-1.9
			c-0.5-0.2-1.1-0.5-1.7-0.8l0.5-1.1c0.6,0.3,1.2,0.6,1.7,0.8c2,1,3.1,1.5,3.5,2.5c0.4,1.2-0.3,2.6-1.9,6
			C37.3,36,37.1,36.4,36.8,36.9z"/>
	</g>
</g>
</svg>
