<svg xmlns="http://www.w3.org/2000/svg" viewBox="0 0 1000.1 1306.68"><defs><style>.cls-1{fill:#fff;}</style></defs><title>hush-icon-whiteAsset 6</title><g id="Layer_2" data-name="Layer 2"><g id="Logo"><g id="Hush"><g id="Icon"><path class="cls-1" d="M111,1020.17A54.68,54.68,0,0,1,56.5,1075h-2A54.68,54.68,0,0,1,0,1020.17V240.5a54.68,54.68,0,0,1,54.52-54.84h2A54.68,54.68,0,0,1,111,240.5Z"/><path class="cls-1" d="M1000.1,1020.17A54.68,54.68,0,0,1,945.59,1075h-2a54.68,54.68,0,0,1-54.51-54.84V240.5a54.68,54.68,0,0,1,54.51-54.84h2a54.68,54.68,0,0,1,54.52,54.84Z"/><path class="cls-1" d="M324,1133.81c0,30.24-24.93,54.75-55.69,54.75h0c-30.75,0-55.69-24.51-55.69-54.75V796.33c0-30.24,24.93-54.75,55.69-54.75h0c30.75,0,55.69,24.51,55.69,54.75Z"/><path class="cls-1" d="M324,578.14c0,30.34-24.86,54.94-55.52,54.94h0c-30.66,0-55.52-24.6-55.52-54.94V119.41c0-30.34,24.86-54.94,55.52-54.94h0c30.66,0,55.52,24.6,55.52,54.94Z"/><path class="cls-1" d="M772,1133.56c0,30.38-24.08,55-53.79,55H714.3c-29.71,0-53.79-24.62-53.79-55V632.49c0-30.38,24.08-55,53.79-55h3.91c29.71,0,53.79,24.62,53.79,55Z"/><path class="cls-1" d="M772,411.88c0,31.27-25,56.62-55.88,56.62h0c-30.86,0-55.88-25.35-55.88-56.62V121.28c0-31.27,25-56.62,55.88-56.62h0C747,64.66,772,90,772,121.28Z"/><path class="cls-1" d="M489.5,0a54.89,54.89,0,0,0-55,54.75V241.49s14.86-32.67,52.86-32.67c43.5,0,57.2,32.67,57.2,32.67V54.75A54.89,54.89,0,0,0,489.5,0Z"/><path class="cls-1" d="M489.19,1094.24c-39.31,0-55.69-32.5-55.69-32.5v190.19c0,30.24,24.93,54.75,55.69,54.75s55.69-24.51,55.69-54.75V1061.24S530.75,1094.24,489.19,1094.24Z"/><path class="cls-1" d="M489.5,322.48a54.89,54.89,0,0,0-55,54.75v144.6s33.69,40,57.19,66.33,25.83,27.5,33.67,27.5c8.83,0,19.2-3.17,19.2-20.17V377.23A54.89,54.89,0,0,0,489.5,322.48Z"/><path class="cls-1" d="M487,751.16c23.5,26.33,57.19,66.33,57.19,66.33v99.79a55,55,0,0,1-110.06,0V743.83c0-8.21-2.27-19,9.86-24s19.88,4.5,29.88,16.25S487,751.16,487,751.16Z"/></g></g></g></g></svg>