<svg xmlns="http://www.w3.org/2000/svg" viewBox="0 0 875 1000"><path d="M347 419.5c-28.5 0-51 25-51 55.5s23 55.5 51 55.5c28.5 0 51-25 51-55.5.5-30.5-22.5-55.5-51-55.5zm182.5 0c-28.5 0-51 25-51 55.5s23 55.5 51 55.5c28.5 0 51-25 51-55.5s-22.5-55.5-51-55.5z" fill="#2d2d2d"/><path d="M772.5 0h-670C46 0 0 46 0 103v676c0 57 46 103 102.5 103h567L643 789.5l64 59.5 60.5 56 107.5 95V103C875 46 829 0 772.5 0zm-193 653s-18-21.5-33-40.5C612 594 637 553 637 553c-20.5 13.5-40 23-57.5 29.5-25 10.5-49 17.5-72.5 21.5-48 9-92 6.5-129.5-.5C349 598 324.5 590 304 582c-11.5-4.5-24-10-36.5-17-1.5-1-3-1.5-4.5-2.5-1-.5-1.5-1-2-1.5-9-5-14-8.5-14-8.5s24 40 87.5 59c-15 19-33.5 41.5-33.5 41.5-110.5-3.5-152.5-76-152.5-76 0-161 72-291.5 72-291.5 72-54 140.5-52.5 140.5-52.5l5 6c-90 26-131.5 65.5-131.5 65.5s11-6 29.5-14.5c53.5-23.5 96-30 113.5-31.5 3-.5 5.5-1 8.5-1 30.5-4 65-5 101-1 47.5 5.5 98.5 19.5 150.5 48 0 0-39.5-37.5-124.5-63.5l7-8s68.5-1.5 140.5 52.5c0 0 72 130.5 72 291.5 0 0-42.5 72.5-153 76z" fill="#2d2d2d"/></svg>