<svg xmlns="http://www.w3.org/2000/svg" viewBox="0 0 1000 1000"><path d="M261.6 449.7c-9.8-7.7-21.9-12.1-34.4-12.1-30.8 0-55.8 25.1-55.8 55.9 0 17.8 8.6 34.3 22.6 44.7 11.6-33.2 35.2-63.4 67.6-88.5zM739.3 311.9c23 0 41.7-18.7 41.7-41.7s-18.7-41.7-41.7-41.7c-23 0-41.7 18.7-41.7 41.7s18.7 41.7 41.7 41.7z"/><path d="M500 10C229.4 10 10 229.4 10 500s219.4 490 490 490 490-219.4 490-490S770.6 10 500 10zm309.3 551.7c1.3 7.7 2.2 15.5 2.2 23.5 0 114.7-140.4 208-312.9 208-172.5 0-312.9-93.3-312.9-208 0-8.5 1-16.7 2.5-24.9-23.5-13.8-38.4-39.1-38.4-66.8 0-42.8 34.8-77.6 77.5-77.6 19.5 0 38.1 7.8 52.4 20.9 55.2-36 130.3-58.4 213.2-59.4l48.3-152.7c1.7-5.4 7.4-8.6 12.9-7.3l126.4 29.7c9.2-23.6 32.1-40.4 59-40.4 35 0 63.4 28.5 63.4 63.4 0 35-28.5 63.4-63.4 63.4-35 0-63.4-28.5-63.4-63.4 0-.6.1-1.1.2-1.7l-117.2-27.6-43.3 136.9c79.3 2.8 150.9 25.1 203.8 60.2 14.4-13.9 33.2-22 53.5-22 42.8 0 77.6 34.8 77.6 77.6-.4 29-16.3 54.8-41.4 68.2z" fill="#2d2d2d"/><path d="M347.5 546.8c0-25.5 20.7-46.2 46.2-46.2 25.5 0 46.2 20.7 46.2 46.2 0 25.5-20.7 46.2-46.2 46.2-25.5-.1-46.2-20.8-46.2-46.2zM612 683.6c-23.3 23.3-59.8 34.6-111.6 34.6-.1 0-.2-.1-.4-.1s-.2.1-.4.1c-51.9 0-88.4-11.3-111.6-34.6-4.2-4.2-4.2-11.1 0-15.4 4.2-4.2 11.1-4.2 15.4 0 19 19 50.5 28.2 96.3 28.2.1 0 .2.1.4.1s.2-.1.4-.1c45.8 0 77.3-9.2 96.3-28.2 4.3-4.2 11.1-4.2 15.4 0 4.1 4.3 4.1 11.2-.2 15.4zm-5.5-90.7c-25.4 0-46.2-20.7-46.2-46.2 0-25.5 20.7-46.2 46.2-46.2s46.2 20.7 46.2 46.2c0 25.5-20.7 46.2-46.2 46.2zM772.7 437.7c-13.3 0-25.8 4.8-35.8 13.2 32.3 25.2 55.5 55.6 66.8 89 15.4-10.2 24.9-27.3 24.9-46.3 0-30.9-25-55.9-55.9-55.9z" fill="#2d2d2d"/></svg>