<svg xmlns="http://www.w3.org/2000/svg" viewBox="0 0 90.8 132"><path d="M35.1 36v21.1h17.6c2.9 0 5.5-1.2 7.5-3.1 1.9-1.9 3.1-4.6 3.1-7.5S62.1 41 60.2 39c-1.9-1.9-4.6-3.1-7.5-3.1l-17.6.1zm23.1 75.2V132H42.9v-20.7h-5.3V132H22.3v-20.7H.2L3.1 96h10.1c3.7 0 6.6-3 6.6-6.6V42.5c0-3.7-3-6.6-6.6-6.6H0V20.5h22.3V0h15.3v20.6h5.3V0h15.3v21.2c5 1.1 9.4 3.6 12.9 7 4.7 4.7 7.6 11.2 7.6 18.3 0 4.8-1.3 9.2-3.6 13.1 2.9 1.4 5.5 3.2 7.8 5.4 4.9 4.9 7.9 11.7 7.9 19.1 0 7.4-3 14.2-7.9 19.1s-11.7 7.9-19.1 7.9l-5.6.1zM35.1 72.5v23.4h28.7c3.2 0 6.1-1.3 8.3-3.4 2.1-2.1 3.4-5.1 3.4-8.3 0-3.2-1.3-6.1-3.4-8.3s-5.1-3.4-8.3-3.4H35.1z" fill="#2d2d2d"/></svg>