<?xml version="1.0" encoding="utf-8"?>
<svg version="1.1" id="Layer_1" xmlns:serif="http://www.serif.com/"
	 xmlns="http://www.w3.org/2000/svg" xmlns:xlink="http://www.w3.org/1999/xlink" x="0px" y="0px" viewBox="0 0 24 24"
	 style="enable-background:new 0 0 24 24;" xml:space="preserve">
<style type="text/css">
	.st0{fill-rule:evenodd;clip-rule:evenodd;fill:#2D2D2D;}
</style>
<path id="telegram-1" class="st0" d="M18.4,22.8c0.3,0.2,0.7,0.3,1.1,0.1c0.4-0.1,0.6-0.5,0.7-0.8c0.9-4.1,3-14.4,3.8-18.1
	c0.1-0.3,0-0.6-0.3-0.8C23.5,3,23.2,2.9,22.9,3C18.7,4.6,5.8,9.4,0.5,11.4C0.2,11.5,0,11.8,0,12.2c0,0.4,0.3,0.7,0.6,0.8
	c2.4,0.7,5.5,1.7,5.5,1.7s1.5,4.4,2.2,6.6c0.1,0.3,0.3,0.5,0.6,0.6c0.3,0.1,0.6,0,0.8-0.2c1.2-1.1,3.1-2.9,3.1-2.9
	S16.4,21.3,18.4,22.8z M7.4,14.1l1.7,5.5l0.4-3.5c0,0,6.5-5.9,10.2-9.2c0.1-0.1,0.1-0.3,0-0.4c-0.1-0.1-0.3-0.1-0.4-0.1
	C15,9.2,7.4,14.1,7.4,14.1z"/>
</svg>
